<svg width="1080" height="1920" viewBox="0 0 1080 1920" fill="none" xmlns="http://www.w3.org/2000/svg">
<rect width="1080" height="1920" fill="#B5B5B5"/>
<g filter="url(#filter0_d_1179_2)">
<rect x="100" y="73" width="879" height="325" rx="15" fill="white"/>
</g>
<path d="M144.182 140.409V139C145.447 139 146.33 138.735 146.83 138.205C147.337 137.674 147.591 136.788 147.591 135.545V131.909C147.591 130.864 147.689 129.958 147.886 129.193C148.091 128.428 148.42 127.795 148.875 127.295C149.33 126.795 149.936 126.424 150.693 126.182C151.451 125.939 152.386 125.818 153.5 125.818V128.045C152.621 128.045 151.928 128.182 151.42 128.455C150.92 128.727 150.564 129.152 150.352 129.727C150.148 130.295 150.045 131.023 150.045 131.909V136.455C150.045 137.045 149.966 137.583 149.807 138.068C149.655 138.553 149.371 138.97 148.955 139.318C148.538 139.667 147.943 139.936 147.17 140.125C146.405 140.314 145.409 140.409 144.182 140.409ZM153.5 154.909C152.386 154.909 151.451 154.788 150.693 154.545C149.936 154.303 149.33 153.932 148.875 153.432C148.42 152.932 148.091 152.299 147.886 151.534C147.689 150.769 147.591 149.864 147.591 148.818V145.182C147.591 143.939 147.337 143.053 146.83 142.523C146.33 141.992 145.447 141.727 144.182 141.727V140.318C145.409 140.318 146.405 140.413 147.17 140.602C147.943 140.792 148.538 141.061 148.955 141.409C149.371 141.758 149.655 142.174 149.807 142.659C149.966 143.144 150.045 143.682 150.045 144.273V148.818C150.045 149.705 150.148 150.432 150.352 151C150.564 151.568 150.92 151.989 151.42 152.261C151.928 152.542 152.621 152.682 153.5 152.682V154.909ZM144.182 141.727V139H146.864V141.727H144.182ZM157.412 152V128.727H171.366V131.227H160.23V139.091H170.321V141.591H160.23V152H157.412ZM174.241 152H171.287L179.832 128.727H182.741L191.287 152H188.332L181.378 132.409H181.196L174.241 152ZM175.332 142.909H187.241V145.409H175.332V142.909ZM212.545 136H209.727C209.561 135.189 209.269 134.477 208.852 133.864C208.443 133.25 207.943 132.735 207.352 132.318C206.769 131.894 206.121 131.576 205.409 131.364C204.697 131.152 203.955 131.045 203.182 131.045C201.773 131.045 200.496 131.402 199.352 132.114C198.216 132.826 197.311 133.875 196.636 135.261C195.97 136.648 195.636 138.348 195.636 140.364C195.636 142.379 195.97 144.08 196.636 145.466C197.311 146.852 198.216 147.902 199.352 148.614C200.496 149.326 201.773 149.682 203.182 149.682C203.955 149.682 204.697 149.576 205.409 149.364C206.121 149.152 206.769 148.837 207.352 148.42C207.943 147.996 208.443 147.477 208.852 146.864C209.269 146.242 209.561 145.53 209.727 144.727H212.545C212.333 145.917 211.947 146.981 211.386 147.92C210.826 148.86 210.129 149.659 209.295 150.318C208.462 150.97 207.527 151.466 206.489 151.807C205.458 152.148 204.356 152.318 203.182 152.318C201.197 152.318 199.432 151.833 197.886 150.864C196.341 149.894 195.125 148.515 194.239 146.727C193.352 144.939 192.909 142.818 192.909 140.364C192.909 137.909 193.352 135.788 194.239 134C195.125 132.212 196.341 130.833 197.886 129.864C199.432 128.894 201.197 128.409 203.182 128.409C204.356 128.409 205.458 128.58 206.489 128.92C207.527 129.261 208.462 129.761 209.295 130.42C210.129 131.072 210.826 131.867 211.386 132.807C211.947 133.739 212.333 134.803 212.545 136ZM215.827 131.227V128.727H233.281V131.227H225.963V152H223.145V131.227H215.827ZM247.5 152V154.5H232.955V152H247.5ZM250.287 152V128.727H253.105V139.091H265.514V128.727H268.332V152H265.514V141.591H253.105V152H250.287ZM273.974 152V128.727H288.02V131.227H276.793V139.091H287.293V141.591H276.793V149.5H288.202V152H273.974ZM293.099 152V128.727H300.963C302.781 128.727 304.274 129.038 305.44 129.659C306.607 130.273 307.471 131.117 308.031 132.193C308.592 133.269 308.872 134.492 308.872 135.864C308.872 137.235 308.592 138.451 308.031 139.511C307.471 140.572 306.611 141.405 305.452 142.011C304.293 142.61 302.812 142.909 301.009 142.909H294.645V140.364H300.918C302.16 140.364 303.16 140.182 303.918 139.818C304.683 139.455 305.236 138.939 305.577 138.273C305.925 137.598 306.099 136.795 306.099 135.864C306.099 134.932 305.925 134.117 305.577 133.42C305.228 132.723 304.671 132.186 303.906 131.807C303.141 131.42 302.13 131.227 300.872 131.227H295.918V152H293.099ZM304.054 141.545L309.781 152H306.509L300.872 141.545H304.054ZM313.568 152V128.727H327.614V131.227H316.386V139.091H326.886V141.591H316.386V149.5H327.795V152H313.568ZM340.284 140.318V141.727C339.019 141.727 338.133 141.992 337.625 142.523C337.125 143.053 336.875 143.939 336.875 145.182V148.818C336.875 149.864 336.773 150.769 336.568 151.534C336.371 152.299 336.045 152.932 335.591 153.432C335.136 153.932 334.53 154.303 333.773 154.545C333.015 154.788 332.08 154.909 330.966 154.909V152.682C331.845 152.682 332.534 152.542 333.034 152.261C333.542 151.989 333.898 151.568 334.102 151C334.314 150.432 334.42 149.705 334.42 148.818V144.273C334.42 143.682 334.496 143.144 334.648 142.659C334.807 142.174 335.095 141.758 335.511 141.409C335.928 141.061 336.519 140.792 337.284 140.602C338.057 140.413 339.057 140.318 340.284 140.318ZM330.966 125.818C332.08 125.818 333.015 125.939 333.773 126.182C334.53 126.424 335.136 126.795 335.591 127.295C336.045 127.795 336.371 128.428 336.568 129.193C336.773 129.958 336.875 130.864 336.875 131.909V135.545C336.875 136.788 337.125 137.674 337.625 138.205C338.133 138.735 339.019 139 340.284 139V140.409C339.057 140.409 338.057 140.314 337.284 140.125C336.519 139.936 335.928 139.667 335.511 139.318C335.095 138.97 334.807 138.553 334.648 138.068C334.496 137.583 334.42 137.045 334.42 136.455V131.909C334.42 131.023 334.314 130.295 334.102 129.727C333.898 129.152 333.542 128.727 333.034 128.455C332.534 128.182 331.845 128.045 330.966 128.045V125.818ZM340.284 139V141.727H337.602V139H340.284Z" fill="black"/>
<g filter="url(#filter1_d_1179_2)">
<rect x="100" y="421" width="433" height="703" rx="15" fill="#CACACA"/>
</g>
<path d="M252.182 772.409V771C253.447 771 254.33 770.735 254.83 770.205C255.337 769.674 255.591 768.788 255.591 767.545V763.909C255.591 762.864 255.689 761.958 255.886 761.193C256.091 760.428 256.42 759.795 256.875 759.295C257.33 758.795 257.936 758.424 258.693 758.182C259.451 757.939 260.386 757.818 261.5 757.818V760.045C260.621 760.045 259.928 760.182 259.42 760.455C258.92 760.727 258.564 761.152 258.352 761.727C258.148 762.295 258.045 763.023 258.045 763.909V768.455C258.045 769.045 257.966 769.583 257.807 770.068C257.655 770.553 257.371 770.97 256.955 771.318C256.538 771.667 255.943 771.936 255.17 772.125C254.405 772.314 253.409 772.409 252.182 772.409ZM261.5 786.909C260.386 786.909 259.451 786.788 258.693 786.545C257.936 786.303 257.33 785.932 256.875 785.432C256.42 784.932 256.091 784.299 255.886 783.534C255.689 782.769 255.591 781.864 255.591 780.818V777.182C255.591 775.939 255.337 775.053 254.83 774.523C254.33 773.992 253.447 773.727 252.182 773.727V772.318C253.409 772.318 254.405 772.413 255.17 772.602C255.943 772.792 256.538 773.061 256.955 773.409C257.371 773.758 257.655 774.174 257.807 774.659C257.966 775.144 258.045 775.682 258.045 776.273V780.818C258.045 781.705 258.148 782.432 258.352 783C258.564 783.568 258.92 783.989 259.42 784.261C259.928 784.542 260.621 784.682 261.5 784.682V786.909ZM252.182 773.727V771H254.864V773.727H252.182ZM268.23 760.727V784H265.412V760.727H268.23ZM273.517 784V766.545H276.108V769.273H276.335C276.699 768.341 277.286 767.617 278.097 767.102C278.907 766.58 279.881 766.318 281.017 766.318C282.169 766.318 283.127 766.58 283.892 767.102C284.665 767.617 285.267 768.341 285.699 769.273H285.881C286.328 768.371 286.998 767.655 287.892 767.125C288.786 766.587 289.858 766.318 291.108 766.318C292.669 766.318 293.945 766.807 294.938 767.784C295.93 768.754 296.426 770.265 296.426 772.318V784H293.744V772.318C293.744 771.03 293.392 770.11 292.688 769.557C291.983 769.004 291.153 768.727 290.199 768.727C288.972 768.727 288.021 769.098 287.347 769.841C286.672 770.576 286.335 771.508 286.335 772.636V784H283.608V772.045C283.608 771.053 283.286 770.254 282.642 769.648C281.998 769.034 281.169 768.727 280.153 768.727C279.456 768.727 278.805 768.913 278.199 769.284C277.6 769.655 277.116 770.17 276.744 770.83C276.381 771.481 276.199 772.235 276.199 773.091V784H273.517ZM306.466 784.409C305.36 784.409 304.356 784.201 303.455 783.784C302.553 783.36 301.837 782.75 301.307 781.955C300.777 781.152 300.511 780.182 300.511 779.045C300.511 778.045 300.708 777.235 301.102 776.614C301.496 775.985 302.023 775.492 302.682 775.136C303.341 774.78 304.068 774.515 304.864 774.341C305.667 774.159 306.473 774.015 307.284 773.909C308.345 773.773 309.205 773.67 309.864 773.602C310.53 773.527 311.015 773.402 311.318 773.227C311.629 773.053 311.784 772.75 311.784 772.318V772.227C311.784 771.106 311.477 770.235 310.864 769.614C310.258 768.992 309.337 768.682 308.102 768.682C306.822 768.682 305.818 768.962 305.091 769.523C304.364 770.083 303.852 770.682 303.557 771.318L301.011 770.409C301.466 769.348 302.072 768.523 302.83 767.932C303.595 767.333 304.428 766.917 305.33 766.682C306.239 766.439 307.133 766.318 308.011 766.318C308.572 766.318 309.216 766.386 309.943 766.523C310.678 766.652 311.386 766.92 312.068 767.33C312.758 767.739 313.33 768.356 313.784 769.182C314.239 770.008 314.466 771.114 314.466 772.5V784H311.784V781.636H311.648C311.466 782.015 311.163 782.42 310.739 782.852C310.314 783.284 309.75 783.652 309.045 783.955C308.341 784.258 307.481 784.409 306.466 784.409ZM306.875 782C307.936 782 308.83 781.792 309.557 781.375C310.292 780.958 310.845 780.42 311.216 779.761C311.595 779.102 311.784 778.409 311.784 777.682V775.227C311.67 775.364 311.42 775.489 311.034 775.602C310.655 775.708 310.216 775.803 309.716 775.886C309.223 775.962 308.742 776.03 308.273 776.091C307.811 776.144 307.436 776.189 307.148 776.227C306.451 776.318 305.799 776.466 305.193 776.67C304.595 776.867 304.11 777.167 303.739 777.568C303.375 777.962 303.193 778.5 303.193 779.182C303.193 780.114 303.538 780.818 304.227 781.295C304.924 781.765 305.807 782 306.875 782ZM326.406 790.909C325.111 790.909 323.997 790.742 323.065 790.409C322.134 790.083 321.357 789.652 320.736 789.114C320.122 788.583 319.634 788.015 319.27 787.409L321.406 785.909C321.649 786.227 321.955 786.591 322.327 787C322.698 787.417 323.205 787.777 323.849 788.08C324.501 788.39 325.353 788.545 326.406 788.545C327.815 788.545 328.978 788.205 329.895 787.523C330.812 786.841 331.27 785.773 331.27 784.318V780.773H331.043C330.846 781.091 330.565 781.485 330.202 781.955C329.846 782.417 329.33 782.83 328.656 783.193C327.99 783.549 327.088 783.727 325.952 783.727C324.543 783.727 323.277 783.394 322.156 782.727C321.043 782.061 320.16 781.091 319.509 779.818C318.865 778.545 318.543 777 318.543 775.182C318.543 773.394 318.857 771.837 319.486 770.511C320.115 769.178 320.99 768.148 322.111 767.42C323.232 766.686 324.527 766.318 325.997 766.318C327.134 766.318 328.035 766.508 328.702 766.886C329.376 767.258 329.891 767.682 330.247 768.159C330.611 768.629 330.891 769.015 331.088 769.318H331.361V766.545H333.952V784.5C333.952 786 333.611 787.22 332.929 788.159C332.255 789.106 331.346 789.799 330.202 790.239C329.065 790.686 327.8 790.909 326.406 790.909ZM326.315 781.318C327.391 781.318 328.3 781.072 329.043 780.58C329.785 780.087 330.349 779.379 330.736 778.455C331.122 777.53 331.315 776.424 331.315 775.136C331.315 773.879 331.126 772.769 330.747 771.807C330.368 770.845 329.808 770.091 329.065 769.545C328.323 769 327.406 768.727 326.315 768.727C325.179 768.727 324.232 769.015 323.474 769.591C322.724 770.167 322.16 770.939 321.781 771.909C321.41 772.879 321.224 773.955 321.224 775.136C321.224 776.348 321.414 777.42 321.793 778.352C322.179 779.277 322.747 780.004 323.497 780.534C324.255 781.057 325.194 781.318 326.315 781.318ZM346.179 784.364C344.497 784.364 343.046 783.992 341.827 783.25C340.615 782.5 339.679 781.455 339.02 780.114C338.368 778.765 338.043 777.197 338.043 775.409C338.043 773.621 338.368 772.045 339.02 770.682C339.679 769.311 340.596 768.242 341.77 767.477C342.952 766.705 344.33 766.318 345.906 766.318C346.815 766.318 347.713 766.47 348.599 766.773C349.486 767.076 350.293 767.568 351.02 768.25C351.747 768.924 352.327 769.818 352.759 770.932C353.19 772.045 353.406 773.417 353.406 775.045V776.182H339.952V773.864H350.679C350.679 772.879 350.482 772 350.088 771.227C349.702 770.455 349.149 769.845 348.429 769.398C347.717 768.951 346.876 768.727 345.906 768.727C344.838 768.727 343.914 768.992 343.134 769.523C342.361 770.045 341.766 770.727 341.349 771.568C340.933 772.409 340.724 773.311 340.724 774.273V775.818C340.724 777.136 340.952 778.254 341.406 779.17C341.868 780.08 342.509 780.773 343.327 781.25C344.145 781.72 345.096 781.955 346.179 781.955C346.884 781.955 347.52 781.856 348.088 781.659C348.664 781.455 349.16 781.152 349.577 780.75C349.993 780.341 350.315 779.833 350.543 779.227L353.134 779.955C352.861 780.833 352.402 781.606 351.759 782.273C351.115 782.932 350.319 783.447 349.372 783.818C348.425 784.182 347.361 784.364 346.179 784.364ZM365.622 760.727V784H362.804V763.682H362.668L356.986 767.455V764.591L362.804 760.727H365.622ZM380.315 772.318V773.727C379.05 773.727 378.164 773.992 377.656 774.523C377.156 775.053 376.906 775.939 376.906 777.182V780.818C376.906 781.864 376.804 782.769 376.599 783.534C376.402 784.299 376.077 784.932 375.622 785.432C375.168 785.932 374.562 786.303 373.804 786.545C373.046 786.788 372.111 786.909 370.997 786.909V784.682C371.876 784.682 372.565 784.542 373.065 784.261C373.573 783.989 373.929 783.568 374.134 783C374.346 782.432 374.452 781.705 374.452 780.818V776.273C374.452 775.682 374.527 775.144 374.679 774.659C374.838 774.174 375.126 773.758 375.543 773.409C375.959 773.061 376.55 772.792 377.315 772.602C378.088 772.413 379.088 772.318 380.315 772.318ZM370.997 757.818C372.111 757.818 373.046 757.939 373.804 758.182C374.562 758.424 375.168 758.795 375.622 759.295C376.077 759.795 376.402 760.428 376.599 761.193C376.804 761.958 376.906 762.864 376.906 763.909V767.545C376.906 768.788 377.156 769.674 377.656 770.205C378.164 770.735 379.05 771 380.315 771V772.409C379.088 772.409 378.088 772.314 377.315 772.125C376.55 771.936 375.959 771.667 375.543 771.318C375.126 770.97 374.838 770.553 374.679 770.068C374.527 769.583 374.452 769.045 374.452 768.455V763.909C374.452 763.023 374.346 762.295 374.134 761.727C373.929 761.152 373.573 760.727 373.065 760.455C372.565 760.182 371.876 760.045 370.997 760.045V757.818ZM380.315 771V773.727H377.634V771H380.315Z" fill="black"/>
<g filter="url(#filter2_d_1179_2)">
<rect x="546" y="421" width="433" height="703" rx="15" fill="#CACACA"/>
</g>
<path d="M698.182 761.409V760C699.447 760 700.33 759.735 700.83 759.205C701.337 758.674 701.591 757.788 701.591 756.545V752.909C701.591 751.864 701.689 750.958 701.886 750.193C702.091 749.428 702.42 748.795 702.875 748.295C703.33 747.795 703.936 747.424 704.693 747.182C705.451 746.939 706.386 746.818 707.5 746.818V749.045C706.621 749.045 705.928 749.182 705.42 749.455C704.92 749.727 704.564 750.152 704.352 750.727C704.148 751.295 704.045 752.023 704.045 752.909V757.455C704.045 758.045 703.966 758.583 703.807 759.068C703.655 759.553 703.371 759.97 702.955 760.318C702.538 760.667 701.943 760.936 701.17 761.125C700.405 761.314 699.409 761.409 698.182 761.409ZM707.5 775.909C706.386 775.909 705.451 775.788 704.693 775.545C703.936 775.303 703.33 774.932 702.875 774.432C702.42 773.932 702.091 773.299 701.886 772.534C701.689 771.769 701.591 770.864 701.591 769.818V766.182C701.591 764.939 701.337 764.053 700.83 763.523C700.33 762.992 699.447 762.727 698.182 762.727V761.318C699.409 761.318 700.405 761.413 701.17 761.602C701.943 761.792 702.538 762.061 702.955 762.409C703.371 762.758 703.655 763.174 703.807 763.659C703.966 764.144 704.045 764.682 704.045 765.273V769.818C704.045 770.705 704.148 771.432 704.352 772C704.564 772.568 704.92 772.989 705.42 773.261C705.928 773.542 706.621 773.682 707.5 773.682V775.909ZM698.182 762.727V760H700.864V762.727H698.182ZM714.23 749.727V773H711.412V749.727H714.23ZM719.517 773V755.545H722.108V758.273H722.335C722.699 757.341 723.286 756.617 724.097 756.102C724.907 755.58 725.881 755.318 727.017 755.318C728.169 755.318 729.127 755.58 729.892 756.102C730.665 756.617 731.267 757.341 731.699 758.273H731.881C732.328 757.371 732.998 756.655 733.892 756.125C734.786 755.587 735.858 755.318 737.108 755.318C738.669 755.318 739.945 755.807 740.938 756.784C741.93 757.754 742.426 759.265 742.426 761.318V773H739.744V761.318C739.744 760.03 739.392 759.11 738.688 758.557C737.983 758.004 737.153 757.727 736.199 757.727C734.972 757.727 734.021 758.098 733.347 758.841C732.672 759.576 732.335 760.508 732.335 761.636V773H729.608V761.045C729.608 760.053 729.286 759.254 728.642 758.648C727.998 758.034 727.169 757.727 726.153 757.727C725.456 757.727 724.805 757.913 724.199 758.284C723.6 758.655 723.116 759.17 722.744 759.83C722.381 760.481 722.199 761.235 722.199 762.091V773H719.517ZM752.466 773.409C751.36 773.409 750.356 773.201 749.455 772.784C748.553 772.36 747.837 771.75 747.307 770.955C746.777 770.152 746.511 769.182 746.511 768.045C746.511 767.045 746.708 766.235 747.102 765.614C747.496 764.985 748.023 764.492 748.682 764.136C749.341 763.78 750.068 763.515 750.864 763.341C751.667 763.159 752.473 763.015 753.284 762.909C754.345 762.773 755.205 762.67 755.864 762.602C756.53 762.527 757.015 762.402 757.318 762.227C757.629 762.053 757.784 761.75 757.784 761.318V761.227C757.784 760.106 757.477 759.235 756.864 758.614C756.258 757.992 755.337 757.682 754.102 757.682C752.822 757.682 751.818 757.962 751.091 758.523C750.364 759.083 749.852 759.682 749.557 760.318L747.011 759.409C747.466 758.348 748.072 757.523 748.83 756.932C749.595 756.333 750.428 755.917 751.33 755.682C752.239 755.439 753.133 755.318 754.011 755.318C754.572 755.318 755.216 755.386 755.943 755.523C756.678 755.652 757.386 755.92 758.068 756.33C758.758 756.739 759.33 757.356 759.784 758.182C760.239 759.008 760.466 760.114 760.466 761.5V773H757.784V770.636H757.648C757.466 771.015 757.163 771.42 756.739 771.852C756.314 772.284 755.75 772.652 755.045 772.955C754.341 773.258 753.481 773.409 752.466 773.409ZM752.875 771C753.936 771 754.83 770.792 755.557 770.375C756.292 769.958 756.845 769.42 757.216 768.761C757.595 768.102 757.784 767.409 757.784 766.682V764.227C757.67 764.364 757.42 764.489 757.034 764.602C756.655 764.708 756.216 764.803 755.716 764.886C755.223 764.962 754.742 765.03 754.273 765.091C753.811 765.144 753.436 765.189 753.148 765.227C752.451 765.318 751.799 765.466 751.193 765.67C750.595 765.867 750.11 766.167 749.739 766.568C749.375 766.962 749.193 767.5 749.193 768.182C749.193 769.114 749.538 769.818 750.227 770.295C750.924 770.765 751.807 771 752.875 771ZM772.406 779.909C771.111 779.909 769.997 779.742 769.065 779.409C768.134 779.083 767.357 778.652 766.736 778.114C766.122 777.583 765.634 777.015 765.27 776.409L767.406 774.909C767.649 775.227 767.955 775.591 768.327 776C768.698 776.417 769.205 776.777 769.849 777.08C770.501 777.39 771.353 777.545 772.406 777.545C773.815 777.545 774.978 777.205 775.895 776.523C776.812 775.841 777.27 774.773 777.27 773.318V769.773H777.043C776.846 770.091 776.565 770.485 776.202 770.955C775.846 771.417 775.33 771.83 774.656 772.193C773.99 772.549 773.088 772.727 771.952 772.727C770.543 772.727 769.277 772.394 768.156 771.727C767.043 771.061 766.16 770.091 765.509 768.818C764.865 767.545 764.543 766 764.543 764.182C764.543 762.394 764.857 760.837 765.486 759.511C766.115 758.178 766.99 757.148 768.111 756.42C769.232 755.686 770.527 755.318 771.997 755.318C773.134 755.318 774.035 755.508 774.702 755.886C775.376 756.258 775.891 756.682 776.247 757.159C776.611 757.629 776.891 758.015 777.088 758.318H777.361V755.545H779.952V773.5C779.952 775 779.611 776.22 778.929 777.159C778.255 778.106 777.346 778.799 776.202 779.239C775.065 779.686 773.8 779.909 772.406 779.909ZM772.315 770.318C773.391 770.318 774.3 770.072 775.043 769.58C775.785 769.087 776.349 768.379 776.736 767.455C777.122 766.53 777.315 765.424 777.315 764.136C777.315 762.879 777.126 761.769 776.747 760.807C776.368 759.845 775.808 759.091 775.065 758.545C774.323 758 773.406 757.727 772.315 757.727C771.179 757.727 770.232 758.015 769.474 758.591C768.724 759.167 768.16 759.939 767.781 760.909C767.41 761.879 767.224 762.955 767.224 764.136C767.224 765.348 767.414 766.42 767.793 767.352C768.179 768.277 768.747 769.004 769.497 769.534C770.255 770.057 771.194 770.318 772.315 770.318ZM792.179 773.364C790.497 773.364 789.046 772.992 787.827 772.25C786.615 771.5 785.679 770.455 785.02 769.114C784.368 767.765 784.043 766.197 784.043 764.409C784.043 762.621 784.368 761.045 785.02 759.682C785.679 758.311 786.596 757.242 787.77 756.477C788.952 755.705 790.33 755.318 791.906 755.318C792.815 755.318 793.713 755.47 794.599 755.773C795.486 756.076 796.293 756.568 797.02 757.25C797.747 757.924 798.327 758.818 798.759 759.932C799.19 761.045 799.406 762.417 799.406 764.045V765.182H785.952V762.864H796.679C796.679 761.879 796.482 761 796.088 760.227C795.702 759.455 795.149 758.845 794.429 758.398C793.717 757.951 792.876 757.727 791.906 757.727C790.838 757.727 789.914 757.992 789.134 758.523C788.361 759.045 787.766 759.727 787.349 760.568C786.933 761.409 786.724 762.311 786.724 763.273V764.818C786.724 766.136 786.952 767.254 787.406 768.17C787.868 769.08 788.509 769.773 789.327 770.25C790.145 770.72 791.096 770.955 792.179 770.955C792.884 770.955 793.52 770.856 794.088 770.659C794.664 770.455 795.16 770.152 795.577 769.75C795.993 769.341 796.315 768.833 796.543 768.227L799.134 768.955C798.861 769.833 798.402 770.606 797.759 771.273C797.115 771.932 796.319 772.447 795.372 772.818C794.425 773.182 793.361 773.364 792.179 773.364ZM803.44 773V770.955L811.122 762.545C812.024 761.561 812.766 760.705 813.349 759.977C813.933 759.242 814.365 758.553 814.645 757.909C814.933 757.258 815.077 756.576 815.077 755.864C815.077 755.045 814.88 754.337 814.486 753.739C814.099 753.14 813.569 752.678 812.895 752.352C812.221 752.027 811.463 751.864 810.622 751.864C809.728 751.864 808.948 752.049 808.281 752.42C807.622 752.784 807.111 753.295 806.747 753.955C806.391 754.614 806.213 755.386 806.213 756.273H803.531C803.531 754.909 803.846 753.712 804.474 752.682C805.103 751.652 805.959 750.848 807.043 750.273C808.134 749.697 809.357 749.409 810.713 749.409C812.077 749.409 813.285 749.697 814.338 750.273C815.391 750.848 816.217 751.625 816.815 752.602C817.414 753.58 817.713 754.667 817.713 755.864C817.713 756.72 817.558 757.557 817.247 758.375C816.944 759.186 816.414 760.091 815.656 761.091C814.906 762.083 813.865 763.295 812.531 764.727L807.304 770.318V770.5H818.122V773H803.44ZM830.815 761.318V762.727C829.55 762.727 828.664 762.992 828.156 763.523C827.656 764.053 827.406 764.939 827.406 766.182V769.818C827.406 770.864 827.304 771.769 827.099 772.534C826.902 773.299 826.577 773.932 826.122 774.432C825.668 774.932 825.062 775.303 824.304 775.545C823.546 775.788 822.611 775.909 821.497 775.909V773.682C822.376 773.682 823.065 773.542 823.565 773.261C824.073 772.989 824.429 772.568 824.634 772C824.846 771.432 824.952 770.705 824.952 769.818V765.273C824.952 764.682 825.027 764.144 825.179 763.659C825.338 763.174 825.626 762.758 826.043 762.409C826.459 762.061 827.05 761.792 827.815 761.602C828.588 761.413 829.588 761.318 830.815 761.318ZM821.497 746.818C822.611 746.818 823.546 746.939 824.304 747.182C825.062 747.424 825.668 747.795 826.122 748.295C826.577 748.795 826.902 749.428 827.099 750.193C827.304 750.958 827.406 751.864 827.406 752.909V756.545C827.406 757.788 827.656 758.674 828.156 759.205C828.664 759.735 829.55 760 830.815 760V761.409C829.588 761.409 828.588 761.314 827.815 761.125C827.05 760.936 826.459 760.667 826.043 760.318C825.626 759.97 825.338 759.553 825.179 759.068C825.027 758.583 824.952 758.045 824.952 757.455V752.909C824.952 752.023 824.846 751.295 824.634 750.727C824.429 750.152 824.073 749.727 823.565 749.455C823.065 749.182 822.376 749.045 821.497 749.045V746.818ZM830.815 760V762.727H828.134V760H830.815Z" fill="black"/>
<g filter="url(#filter3_d_1179_2)">
<g filter="url(#filter4_d_1179_2)">
<rect x="105" y="1147" width="879" height="369" rx="15" fill="white"/>
</g>
<path d="M153.182 1351.41V1350C154.447 1350 155.33 1349.73 155.83 1349.2C156.337 1348.67 156.591 1347.79 156.591 1346.55V1342.91C156.591 1341.86 156.689 1340.96 156.886 1340.19C157.091 1339.43 157.42 1338.8 157.875 1338.3C158.33 1337.8 158.936 1337.42 159.693 1337.18C160.451 1336.94 161.386 1336.82 162.5 1336.82V1339.05C161.621 1339.05 160.928 1339.18 160.42 1339.45C159.92 1339.73 159.564 1340.15 159.352 1340.73C159.148 1341.3 159.045 1342.02 159.045 1342.91V1347.45C159.045 1348.05 158.966 1348.58 158.807 1349.07C158.655 1349.55 158.371 1349.97 157.955 1350.32C157.538 1350.67 156.943 1350.94 156.17 1351.12C155.405 1351.31 154.409 1351.41 153.182 1351.41ZM162.5 1365.91C161.386 1365.91 160.451 1365.79 159.693 1365.55C158.936 1365.3 158.33 1364.93 157.875 1364.43C157.42 1363.93 157.091 1363.3 156.886 1362.53C156.689 1361.77 156.591 1360.86 156.591 1359.82V1356.18C156.591 1354.94 156.337 1354.05 155.83 1353.52C155.33 1352.99 154.447 1352.73 153.182 1352.73V1351.32C154.409 1351.32 155.405 1351.41 156.17 1351.6C156.943 1351.79 157.538 1352.06 157.955 1352.41C158.371 1352.76 158.655 1353.17 158.807 1353.66C158.966 1354.14 159.045 1354.68 159.045 1355.27V1359.82C159.045 1360.7 159.148 1361.43 159.352 1362C159.564 1362.57 159.92 1362.99 160.42 1363.26C160.928 1363.54 161.621 1363.68 162.5 1363.68V1365.91ZM153.182 1352.73V1350H155.864V1352.73H153.182ZM166.412 1363V1339.73H174.276C176.094 1339.73 177.586 1340.04 178.753 1340.66C179.92 1341.27 180.783 1342.12 181.344 1343.19C181.904 1344.27 182.185 1345.49 182.185 1346.86C182.185 1348.23 181.904 1349.45 181.344 1350.51C180.783 1351.57 179.923 1352.41 178.764 1353.01C177.605 1353.61 176.124 1353.91 174.321 1353.91H167.957V1351.36H174.23C175.473 1351.36 176.473 1351.18 177.23 1350.82C177.995 1350.45 178.548 1349.94 178.889 1349.27C179.238 1348.6 179.412 1347.8 179.412 1346.86C179.412 1345.93 179.238 1345.12 178.889 1344.42C178.541 1343.72 177.984 1343.19 177.219 1342.81C176.454 1342.42 175.442 1342.23 174.185 1342.23H169.23V1363H166.412ZM177.366 1352.55L183.094 1363H179.821L174.185 1352.55H177.366ZM193.648 1363.36C191.966 1363.36 190.515 1362.99 189.295 1362.25C188.083 1361.5 187.148 1360.45 186.489 1359.11C185.837 1357.77 185.511 1356.2 185.511 1354.41C185.511 1352.62 185.837 1351.05 186.489 1349.68C187.148 1348.31 188.064 1347.24 189.239 1346.48C190.42 1345.7 191.799 1345.32 193.375 1345.32C194.284 1345.32 195.182 1345.47 196.068 1345.77C196.955 1346.08 197.761 1346.57 198.489 1347.25C199.216 1347.92 199.795 1348.82 200.227 1349.93C200.659 1351.05 200.875 1352.42 200.875 1354.05V1355.18H187.42V1352.86H198.148C198.148 1351.88 197.951 1351 197.557 1350.23C197.17 1349.45 196.617 1348.84 195.898 1348.4C195.186 1347.95 194.345 1347.73 193.375 1347.73C192.307 1347.73 191.383 1347.99 190.602 1348.52C189.83 1349.05 189.235 1349.73 188.818 1350.57C188.402 1351.41 188.193 1352.31 188.193 1353.27V1354.82C188.193 1356.14 188.42 1357.25 188.875 1358.17C189.337 1359.08 189.977 1359.77 190.795 1360.25C191.614 1360.72 192.564 1360.95 193.648 1360.95C194.352 1360.95 194.989 1360.86 195.557 1360.66C196.133 1360.45 196.629 1360.15 197.045 1359.75C197.462 1359.34 197.784 1358.83 198.011 1358.23L200.602 1358.95C200.33 1359.83 199.871 1360.61 199.227 1361.27C198.583 1361.93 197.788 1362.45 196.841 1362.82C195.894 1363.18 194.83 1363.36 193.648 1363.36ZM204.955 1369.55V1345.55H207.545V1348.32H207.864C208.061 1348.02 208.333 1347.63 208.682 1347.16C209.038 1346.68 209.545 1346.26 210.205 1345.89C210.871 1345.51 211.773 1345.32 212.909 1345.32C214.379 1345.32 215.674 1345.69 216.795 1346.42C217.917 1347.16 218.792 1348.2 219.42 1349.55C220.049 1350.89 220.364 1352.48 220.364 1354.32C220.364 1356.17 220.049 1357.77 219.42 1359.12C218.792 1360.47 217.92 1361.52 216.807 1362.26C215.693 1363 214.409 1363.36 212.955 1363.36C211.833 1363.36 210.936 1363.18 210.261 1362.81C209.587 1362.43 209.068 1362 208.705 1361.52C208.341 1361.04 208.061 1360.64 207.864 1360.32H207.636V1369.55H204.955ZM207.591 1354.27C207.591 1355.59 207.784 1356.75 208.17 1357.76C208.557 1358.76 209.121 1359.55 209.864 1360.11C210.606 1360.67 211.515 1360.95 212.591 1360.95C213.712 1360.95 214.648 1360.66 215.398 1360.07C216.155 1359.47 216.723 1358.67 217.102 1357.66C217.489 1356.64 217.682 1355.52 217.682 1354.27C217.682 1353.05 217.492 1351.94 217.114 1350.95C216.742 1349.96 216.178 1349.18 215.42 1348.6C214.67 1348.02 213.727 1347.73 212.591 1347.73C211.5 1347.73 210.583 1348 209.841 1348.56C209.098 1349.1 208.538 1349.87 208.159 1350.85C207.78 1351.83 207.591 1352.97 207.591 1354.27ZM227.136 1339.73V1363H224.455V1339.73H227.136ZM233.776 1369.55C233.321 1369.55 232.916 1369.51 232.56 1369.43C232.204 1369.36 231.957 1369.3 231.821 1369.23L232.503 1366.86C233.154 1367.03 233.73 1367.09 234.23 1367.05C234.73 1367 235.173 1366.78 235.56 1366.38C235.954 1365.98 236.313 1365.34 236.639 1364.45L237.139 1363.09L230.685 1345.55H233.594L238.412 1359.45H238.594L243.412 1345.55H246.321L238.912 1365.55C238.579 1366.45 238.166 1367.19 237.673 1367.78C237.181 1368.38 236.609 1368.83 235.957 1369.11C235.313 1369.4 234.586 1369.55 233.776 1369.55ZM261.543 1352.5V1363H258.861V1339.73H261.543V1348.27H261.77C262.179 1347.37 262.793 1346.66 263.611 1346.12C264.437 1345.59 265.535 1345.32 266.906 1345.32C268.096 1345.32 269.137 1345.56 270.031 1346.03C270.925 1346.5 271.618 1347.23 272.111 1348.2C272.611 1349.17 272.861 1350.41 272.861 1351.91V1363H270.179V1352.09C270.179 1350.7 269.819 1349.63 269.099 1348.88C268.387 1348.11 267.399 1347.73 266.134 1347.73C265.255 1347.73 264.467 1347.91 263.77 1348.28C263.08 1348.66 262.535 1349.2 262.134 1349.91C261.74 1350.62 261.543 1351.48 261.543 1352.5ZM285.085 1363.36C283.403 1363.36 281.953 1362.99 280.733 1362.25C279.521 1361.5 278.585 1360.45 277.926 1359.11C277.275 1357.77 276.949 1356.2 276.949 1354.41C276.949 1352.62 277.275 1351.05 277.926 1349.68C278.585 1348.31 279.502 1347.24 280.676 1346.48C281.858 1345.7 283.237 1345.32 284.812 1345.32C285.722 1345.32 286.619 1345.47 287.506 1345.77C288.392 1346.08 289.199 1346.57 289.926 1347.25C290.653 1347.92 291.233 1348.82 291.665 1349.93C292.097 1351.05 292.312 1352.42 292.312 1354.05V1355.18H278.858V1352.86H289.585C289.585 1351.88 289.388 1351 288.994 1350.23C288.608 1349.45 288.055 1348.84 287.335 1348.4C286.623 1347.95 285.782 1347.73 284.812 1347.73C283.744 1347.73 282.82 1347.99 282.04 1348.52C281.267 1349.05 280.672 1349.73 280.256 1350.57C279.839 1351.41 279.631 1352.31 279.631 1353.27V1354.82C279.631 1356.14 279.858 1357.25 280.312 1358.17C280.775 1359.08 281.415 1359.77 282.233 1360.25C283.051 1360.72 284.002 1360.95 285.085 1360.95C285.79 1360.95 286.426 1360.86 286.994 1360.66C287.57 1360.45 288.066 1360.15 288.483 1359.75C288.9 1359.34 289.222 1358.83 289.449 1358.23L292.04 1358.95C291.767 1359.83 291.309 1360.61 290.665 1361.27C290.021 1361.93 289.225 1362.45 288.278 1362.82C287.331 1363.18 286.267 1363.36 285.085 1363.36ZM296.392 1363V1345.55H298.983V1348.18H299.165C299.483 1347.32 300.059 1346.62 300.892 1346.08C301.725 1345.54 302.665 1345.27 303.71 1345.27C303.907 1345.27 304.153 1345.28 304.449 1345.28C304.744 1345.29 304.968 1345.3 305.119 1345.32V1348.05C305.028 1348.02 304.82 1347.99 304.494 1347.94C304.176 1347.89 303.839 1347.86 303.483 1347.86C302.634 1347.86 301.877 1348.04 301.21 1348.4C300.551 1348.75 300.028 1349.23 299.642 1349.85C299.263 1350.47 299.074 1351.17 299.074 1351.95V1363H296.392ZM315.085 1363.36C313.403 1363.36 311.953 1362.99 310.733 1362.25C309.521 1361.5 308.585 1360.45 307.926 1359.11C307.275 1357.77 306.949 1356.2 306.949 1354.41C306.949 1352.62 307.275 1351.05 307.926 1349.68C308.585 1348.31 309.502 1347.24 310.676 1346.48C311.858 1345.7 313.237 1345.32 314.812 1345.32C315.722 1345.32 316.619 1345.47 317.506 1345.77C318.392 1346.08 319.199 1346.57 319.926 1347.25C320.653 1347.92 321.233 1348.82 321.665 1349.93C322.097 1351.05 322.312 1352.42 322.312 1354.05V1355.18H308.858V1352.86H319.585C319.585 1351.88 319.388 1351 318.994 1350.23C318.608 1349.45 318.055 1348.84 317.335 1348.4C316.623 1347.95 315.782 1347.73 314.812 1347.73C313.744 1347.73 312.82 1347.99 312.04 1348.52C311.267 1349.05 310.672 1349.73 310.256 1350.57C309.839 1351.41 309.631 1352.31 309.631 1353.27V1354.82C309.631 1356.14 309.858 1357.25 310.312 1358.17C310.775 1359.08 311.415 1359.77 312.233 1360.25C313.051 1360.72 314.002 1360.95 315.085 1360.95C315.79 1360.95 316.426 1360.86 316.994 1360.66C317.57 1360.45 318.066 1360.15 318.483 1359.75C318.9 1359.34 319.222 1358.83 319.449 1358.23L322.04 1358.95C321.767 1359.83 321.309 1360.61 320.665 1361.27C320.021 1361.93 319.225 1362.45 318.278 1362.82C317.331 1363.18 316.267 1363.36 315.085 1363.36ZM334.347 1353.14V1354.55C333.081 1354.55 332.195 1354.81 331.688 1355.34C331.188 1355.87 330.938 1356.76 330.938 1358V1361.64C330.938 1362.68 330.835 1363.59 330.631 1364.35C330.434 1365.12 330.108 1365.75 329.653 1366.25C329.199 1366.75 328.593 1367.12 327.835 1367.36C327.078 1367.61 326.142 1367.73 325.028 1367.73V1365.5C325.907 1365.5 326.597 1365.36 327.097 1365.08C327.604 1364.81 327.96 1364.39 328.165 1363.82C328.377 1363.25 328.483 1362.52 328.483 1361.64V1357.09C328.483 1356.5 328.559 1355.96 328.71 1355.48C328.869 1354.99 329.157 1354.58 329.574 1354.23C329.991 1353.88 330.581 1353.61 331.347 1353.42C332.119 1353.23 333.119 1353.14 334.347 1353.14ZM325.028 1338.64C326.142 1338.64 327.078 1338.76 327.835 1339C328.593 1339.24 329.199 1339.61 329.653 1340.11C330.108 1340.61 330.434 1341.25 330.631 1342.01C330.835 1342.78 330.938 1343.68 330.938 1344.73V1348.36C330.938 1349.61 331.188 1350.49 331.688 1351.02C332.195 1351.55 333.081 1351.82 334.347 1351.82V1353.23C333.119 1353.23 332.119 1353.13 331.347 1352.94C330.581 1352.75 329.991 1352.48 329.574 1352.14C329.157 1351.79 328.869 1351.37 328.71 1350.89C328.559 1350.4 328.483 1349.86 328.483 1349.27V1344.73C328.483 1343.84 328.377 1343.11 328.165 1342.55C327.96 1341.97 327.604 1341.55 327.097 1341.27C326.597 1341 325.907 1340.86 325.028 1340.86V1338.64ZM334.347 1351.82V1354.55H331.665V1351.82H334.347Z" fill="black"/>
<path d="M307.455 1232.86V1222.55H310.136V1240H307.455V1237.05H307.273C306.864 1237.93 306.227 1238.69 305.364 1239.31C304.5 1239.92 303.409 1240.23 302.091 1240.23C301 1240.23 300.03 1239.99 299.182 1239.51C298.333 1239.03 297.667 1238.3 297.182 1237.33C296.697 1236.35 296.455 1235.12 296.455 1233.64V1222.55H299.136V1233.45C299.136 1234.73 299.492 1235.74 300.205 1236.5C300.924 1237.26 301.841 1237.64 302.955 1237.64C303.621 1237.64 304.299 1237.47 304.989 1237.12C305.686 1236.78 306.269 1236.26 306.739 1235.56C307.216 1234.85 307.455 1233.95 307.455 1232.86ZM327.412 1226.45L325.003 1227.14C324.851 1226.73 324.628 1226.34 324.332 1225.97C324.045 1225.58 323.651 1225.26 323.151 1225.01C322.651 1224.76 322.01 1224.64 321.23 1224.64C320.162 1224.64 319.272 1224.88 318.56 1225.38C317.855 1225.86 317.503 1226.48 317.503 1227.23C317.503 1227.89 317.745 1228.42 318.23 1228.81C318.715 1229.19 319.473 1229.52 320.503 1229.77L323.094 1230.41C324.654 1230.79 325.817 1231.37 326.582 1232.15C327.348 1232.92 327.73 1233.92 327.73 1235.14C327.73 1236.14 327.442 1237.03 326.866 1237.82C326.298 1238.61 325.503 1239.23 324.48 1239.68C323.457 1240.14 322.268 1240.36 320.912 1240.36C319.132 1240.36 317.658 1239.98 316.491 1239.2C315.325 1238.43 314.586 1237.3 314.276 1235.82L316.821 1235.18C317.063 1236.12 317.522 1236.83 318.196 1237.3C318.878 1237.77 319.768 1238 320.866 1238C322.116 1238 323.109 1237.73 323.844 1237.2C324.586 1236.67 324.957 1236.02 324.957 1235.27C324.957 1234.67 324.745 1234.16 324.321 1233.75C323.897 1233.33 323.245 1233.02 322.366 1232.82L319.457 1232.14C317.859 1231.76 316.685 1231.17 315.935 1230.38C315.192 1229.57 314.821 1228.57 314.821 1227.36C314.821 1226.38 315.098 1225.51 315.651 1224.75C316.211 1223.99 316.973 1223.4 317.935 1222.97C318.904 1222.53 320.003 1222.32 321.23 1222.32C322.957 1222.32 324.313 1222.7 325.298 1223.45C326.291 1224.21 326.995 1225.21 327.412 1226.45ZM339.085 1240.36C337.403 1240.36 335.953 1239.99 334.733 1239.25C333.521 1238.5 332.585 1237.45 331.926 1236.11C331.275 1234.77 330.949 1233.2 330.949 1231.41C330.949 1229.62 331.275 1228.05 331.926 1226.68C332.585 1225.31 333.502 1224.24 334.676 1223.48C335.858 1222.7 337.237 1222.32 338.812 1222.32C339.722 1222.32 340.619 1222.47 341.506 1222.77C342.392 1223.08 343.199 1223.57 343.926 1224.25C344.653 1224.92 345.233 1225.82 345.665 1226.93C346.097 1228.05 346.312 1229.42 346.312 1231.05V1232.18H332.858V1229.86H343.585C343.585 1228.88 343.388 1228 342.994 1227.23C342.608 1226.45 342.055 1225.84 341.335 1225.4C340.623 1224.95 339.782 1224.73 338.812 1224.73C337.744 1224.73 336.82 1224.99 336.04 1225.52C335.267 1226.05 334.672 1226.73 334.256 1227.57C333.839 1228.41 333.631 1229.31 333.631 1230.27V1231.82C333.631 1233.14 333.858 1234.25 334.312 1235.17C334.775 1236.08 335.415 1236.77 336.233 1237.25C337.051 1237.72 338.002 1237.95 339.085 1237.95C339.79 1237.95 340.426 1237.86 340.994 1237.66C341.57 1237.45 342.066 1237.15 342.483 1236.75C342.9 1236.34 343.222 1235.83 343.449 1235.23L346.04 1235.95C345.767 1236.83 345.309 1237.61 344.665 1238.27C344.021 1238.93 343.225 1239.45 342.278 1239.82C341.331 1240.18 340.267 1240.36 339.085 1240.36ZM350.392 1240V1222.55H352.983V1225.18H353.165C353.483 1224.32 354.059 1223.62 354.892 1223.08C355.725 1222.54 356.665 1222.27 357.71 1222.27C357.907 1222.27 358.153 1222.28 358.449 1222.28C358.744 1222.29 358.968 1222.3 359.119 1222.32V1225.05C359.028 1225.02 358.82 1224.99 358.494 1224.94C358.176 1224.89 357.839 1224.86 357.483 1224.86C356.634 1224.86 355.877 1225.04 355.21 1225.4C354.551 1225.75 354.028 1226.23 353.642 1226.85C353.263 1227.47 353.074 1228.17 353.074 1228.95V1240H350.392ZM364.98 1229.5V1240H362.298V1222.55H364.889V1225.27H365.116C365.526 1224.39 366.147 1223.67 366.98 1223.14C367.813 1222.59 368.889 1222.32 370.207 1222.32C371.389 1222.32 372.423 1222.56 373.31 1223.05C374.196 1223.52 374.885 1224.25 375.378 1225.23C375.87 1226.2 376.116 1227.42 376.116 1228.91V1240H373.435V1229.09C373.435 1227.72 373.079 1226.65 372.366 1225.89C371.654 1225.11 370.677 1224.73 369.435 1224.73C368.579 1224.73 367.813 1224.91 367.139 1225.28C366.473 1225.66 365.946 1226.2 365.56 1226.91C365.173 1227.62 364.98 1228.48 364.98 1229.5ZM386.153 1240.41C385.047 1240.41 384.044 1240.2 383.142 1239.78C382.241 1239.36 381.525 1238.75 380.994 1237.95C380.464 1237.15 380.199 1236.18 380.199 1235.05C380.199 1234.05 380.396 1233.23 380.79 1232.61C381.184 1231.98 381.71 1231.49 382.369 1231.14C383.028 1230.78 383.756 1230.52 384.551 1230.34C385.354 1230.16 386.161 1230.02 386.972 1229.91C388.032 1229.77 388.892 1229.67 389.551 1229.6C390.218 1229.53 390.703 1229.4 391.006 1229.23C391.316 1229.05 391.472 1228.75 391.472 1228.32V1228.23C391.472 1227.11 391.165 1226.23 390.551 1225.61C389.945 1224.99 389.025 1224.68 387.79 1224.68C386.509 1224.68 385.506 1224.96 384.778 1225.52C384.051 1226.08 383.54 1226.68 383.244 1227.32L380.699 1226.41C381.153 1225.35 381.759 1224.52 382.517 1223.93C383.282 1223.33 384.116 1222.92 385.017 1222.68C385.926 1222.44 386.82 1222.32 387.699 1222.32C388.259 1222.32 388.903 1222.39 389.631 1222.52C390.366 1222.65 391.074 1222.92 391.756 1223.33C392.445 1223.74 393.017 1224.36 393.472 1225.18C393.926 1226.01 394.153 1227.11 394.153 1228.5V1240H391.472V1237.64H391.335C391.153 1238.02 390.85 1238.42 390.426 1238.85C390.002 1239.28 389.438 1239.65 388.733 1239.95C388.028 1240.26 387.169 1240.41 386.153 1240.41ZM386.562 1238C387.623 1238 388.517 1237.79 389.244 1237.38C389.979 1236.96 390.532 1236.42 390.903 1235.76C391.282 1235.1 391.472 1234.41 391.472 1233.68V1231.23C391.358 1231.36 391.108 1231.49 390.722 1231.6C390.343 1231.71 389.903 1231.8 389.403 1231.89C388.911 1231.96 388.43 1232.03 387.96 1232.09C387.498 1232.14 387.123 1232.19 386.835 1232.23C386.138 1232.32 385.487 1232.47 384.881 1232.67C384.282 1232.87 383.797 1233.17 383.426 1233.57C383.063 1233.96 382.881 1234.5 382.881 1235.18C382.881 1236.11 383.225 1236.82 383.915 1237.3C384.612 1237.77 385.494 1238 386.562 1238ZM399.048 1240V1222.55H401.639V1225.27H401.866C402.23 1224.34 402.817 1223.62 403.628 1223.1C404.438 1222.58 405.412 1222.32 406.548 1222.32C407.7 1222.32 408.658 1222.58 409.423 1223.1C410.196 1223.62 410.798 1224.34 411.23 1225.27H411.412C411.859 1224.37 412.529 1223.66 413.423 1223.12C414.317 1222.59 415.389 1222.32 416.639 1222.32C418.2 1222.32 419.476 1222.81 420.469 1223.78C421.461 1224.75 421.957 1226.27 421.957 1228.32V1240H419.276V1228.32C419.276 1227.03 418.923 1226.11 418.219 1225.56C417.514 1225 416.685 1224.73 415.73 1224.73C414.503 1224.73 413.552 1225.1 412.878 1225.84C412.204 1226.58 411.866 1227.51 411.866 1228.64V1240H409.139V1228.05C409.139 1227.05 408.817 1226.25 408.173 1225.65C407.529 1225.03 406.7 1224.73 405.685 1224.73C404.988 1224.73 404.336 1224.91 403.73 1225.28C403.132 1225.66 402.647 1226.17 402.276 1226.83C401.912 1227.48 401.73 1228.23 401.73 1229.09V1240H399.048ZM434.179 1240.36C432.497 1240.36 431.046 1239.99 429.827 1239.25C428.615 1238.5 427.679 1237.45 427.02 1236.11C426.368 1234.77 426.043 1233.2 426.043 1231.41C426.043 1229.62 426.368 1228.05 427.02 1226.68C427.679 1225.31 428.596 1224.24 429.77 1223.48C430.952 1222.7 432.33 1222.32 433.906 1222.32C434.815 1222.32 435.713 1222.47 436.599 1222.77C437.486 1223.08 438.293 1223.57 439.02 1224.25C439.747 1224.92 440.327 1225.82 440.759 1226.93C441.19 1228.05 441.406 1229.42 441.406 1231.05V1232.18H427.952V1229.86H438.679C438.679 1228.88 438.482 1228 438.088 1227.23C437.702 1226.45 437.149 1225.84 436.429 1225.4C435.717 1224.95 434.876 1224.73 433.906 1224.73C432.838 1224.73 431.914 1224.99 431.134 1225.52C430.361 1226.05 429.766 1226.73 429.349 1227.57C428.933 1228.41 428.724 1229.31 428.724 1230.27V1231.82C428.724 1233.14 428.952 1234.25 429.406 1235.17C429.868 1236.08 430.509 1236.77 431.327 1237.25C432.145 1237.72 433.096 1237.95 434.179 1237.95C434.884 1237.95 435.52 1237.86 436.088 1237.66C436.664 1237.45 437.16 1237.15 437.577 1236.75C437.993 1236.34 438.315 1235.83 438.543 1235.23L441.134 1235.95C440.861 1236.83 440.402 1237.61 439.759 1238.27C439.115 1238.93 438.319 1239.45 437.372 1239.82C436.425 1240.18 435.361 1240.36 434.179 1240.36ZM457.531 1240V1242.5H442.986V1240H457.531ZM462.636 1229.5V1240H459.955V1216.73H462.636V1225.27H462.864C463.273 1224.37 463.886 1223.66 464.705 1223.12C465.53 1222.59 466.629 1222.32 468 1222.32C469.189 1222.32 470.231 1222.56 471.125 1223.03C472.019 1223.5 472.712 1224.23 473.205 1225.2C473.705 1226.17 473.955 1227.41 473.955 1228.91V1240H471.273V1229.09C471.273 1227.7 470.913 1226.63 470.193 1225.88C469.481 1225.11 468.492 1224.73 467.227 1224.73C466.348 1224.73 465.561 1224.91 464.864 1225.28C464.174 1225.66 463.629 1226.2 463.227 1226.91C462.833 1227.62 462.636 1228.48 462.636 1229.5ZM486.179 1240.36C484.497 1240.36 483.046 1239.99 481.827 1239.25C480.615 1238.5 479.679 1237.45 479.02 1236.11C478.368 1234.77 478.043 1233.2 478.043 1231.41C478.043 1229.62 478.368 1228.05 479.02 1226.68C479.679 1225.31 480.596 1224.24 481.77 1223.48C482.952 1222.7 484.33 1222.32 485.906 1222.32C486.815 1222.32 487.713 1222.47 488.599 1222.77C489.486 1223.08 490.293 1223.57 491.02 1224.25C491.747 1224.92 492.327 1225.82 492.759 1226.93C493.19 1228.05 493.406 1229.42 493.406 1231.05V1232.18H479.952V1229.86H490.679C490.679 1228.88 490.482 1228 490.088 1227.23C489.702 1226.45 489.149 1225.84 488.429 1225.4C487.717 1224.95 486.876 1224.73 485.906 1224.73C484.838 1224.73 483.914 1224.99 483.134 1225.52C482.361 1226.05 481.766 1226.73 481.349 1227.57C480.933 1228.41 480.724 1229.31 480.724 1230.27V1231.82C480.724 1233.14 480.952 1234.25 481.406 1235.17C481.868 1236.08 482.509 1236.77 483.327 1237.25C484.145 1237.72 485.096 1237.95 486.179 1237.95C486.884 1237.95 487.52 1237.86 488.088 1237.66C488.664 1237.45 489.16 1237.15 489.577 1236.75C489.993 1236.34 490.315 1235.83 490.543 1235.23L493.134 1235.95C492.861 1236.83 492.402 1237.61 491.759 1238.27C491.115 1238.93 490.319 1239.45 489.372 1239.82C488.425 1240.18 487.361 1240.36 486.179 1240.36ZM497.486 1240V1222.55H500.077V1225.18H500.259C500.577 1224.32 501.152 1223.62 501.986 1223.08C502.819 1222.54 503.759 1222.27 504.804 1222.27C505.001 1222.27 505.247 1222.28 505.543 1222.28C505.838 1222.29 506.062 1222.3 506.213 1222.32V1225.05C506.122 1225.02 505.914 1224.99 505.588 1224.94C505.27 1224.89 504.933 1224.86 504.577 1224.86C503.728 1224.86 502.971 1225.04 502.304 1225.4C501.645 1225.75 501.122 1226.23 500.736 1226.85C500.357 1227.47 500.168 1228.17 500.168 1228.95V1240H497.486ZM516.179 1240.36C514.497 1240.36 513.046 1239.99 511.827 1239.25C510.615 1238.5 509.679 1237.45 509.02 1236.11C508.368 1234.77 508.043 1233.2 508.043 1231.41C508.043 1229.62 508.368 1228.05 509.02 1226.68C509.679 1225.31 510.596 1224.24 511.77 1223.48C512.952 1222.7 514.33 1222.32 515.906 1222.32C516.815 1222.32 517.713 1222.47 518.599 1222.77C519.486 1223.08 520.293 1223.57 521.02 1224.25C521.747 1224.92 522.327 1225.82 522.759 1226.93C523.19 1228.05 523.406 1229.42 523.406 1231.05V1232.18H509.952V1229.86H520.679C520.679 1228.88 520.482 1228 520.088 1227.23C519.702 1226.45 519.149 1225.84 518.429 1225.4C517.717 1224.95 516.876 1224.73 515.906 1224.73C514.838 1224.73 513.914 1224.99 513.134 1225.52C512.361 1226.05 511.766 1226.73 511.349 1227.57C510.933 1228.41 510.724 1229.31 510.724 1230.27V1231.82C510.724 1233.14 510.952 1234.25 511.406 1235.17C511.868 1236.08 512.509 1236.77 513.327 1237.25C514.145 1237.72 515.096 1237.95 516.179 1237.95C516.884 1237.95 517.52 1237.86 518.088 1237.66C518.664 1237.45 519.16 1237.15 519.577 1236.75C519.993 1236.34 520.315 1235.83 520.543 1235.23L523.134 1235.95C522.861 1236.83 522.402 1237.61 521.759 1238.27C521.115 1238.93 520.319 1239.45 519.372 1239.82C518.425 1240.18 517.361 1240.36 516.179 1240.36Z" fill="black"/>
<path d="M309.864 1300.14C307.545 1300.14 305.496 1299.82 303.716 1299.18C301.936 1298.55 300.439 1297.63 299.227 1296.4C298.015 1295.17 297.098 1293.67 296.477 1291.89C295.856 1290.11 295.545 1288.07 295.545 1285.77C295.545 1283.55 295.86 1281.57 296.489 1279.82C297.125 1278.07 298.045 1276.58 299.25 1275.36C300.462 1274.14 301.932 1273.2 303.659 1272.56C305.394 1271.91 307.356 1271.59 309.545 1271.59C311.674 1271.59 313.538 1271.94 315.136 1272.64C316.742 1273.33 318.083 1274.26 319.159 1275.44C320.242 1276.62 321.053 1277.94 321.591 1279.41C322.136 1280.88 322.409 1282.39 322.409 1283.95C322.409 1285.05 322.356 1286.17 322.25 1287.3C322.144 1288.42 321.92 1289.46 321.58 1290.41C321.239 1291.35 320.712 1292.11 320 1292.68C319.295 1293.26 318.341 1293.55 317.136 1293.55C316.606 1293.55 316.023 1293.46 315.386 1293.3C314.75 1293.13 314.186 1292.85 313.693 1292.47C313.201 1292.08 312.909 1291.56 312.818 1290.91H312.682C312.5 1291.35 312.22 1291.77 311.841 1292.16C311.47 1292.55 310.981 1292.87 310.375 1293.1C309.777 1293.34 309.045 1293.44 308.182 1293.41C307.197 1293.37 306.33 1293.15 305.58 1292.75C304.83 1292.34 304.201 1291.79 303.693 1291.09C303.193 1290.39 302.814 1289.57 302.557 1288.65C302.307 1287.72 302.182 1286.71 302.182 1285.64C302.182 1284.61 302.333 1283.68 302.636 1282.83C302.939 1281.98 303.36 1281.24 303.898 1280.6C304.443 1279.97 305.08 1279.46 305.807 1279.08C306.542 1278.69 307.333 1278.45 308.182 1278.36C308.939 1278.29 309.629 1278.32 310.25 1278.47C310.871 1278.6 311.383 1278.81 311.784 1279.09C312.186 1279.36 312.439 1279.67 312.545 1280H312.682V1278.73H315.091V1289C315.091 1289.64 315.269 1290.2 315.625 1290.68C315.981 1291.17 316.5 1291.41 317.182 1291.41C317.955 1291.41 318.545 1291.14 318.955 1290.61C319.371 1290.08 319.655 1289.27 319.807 1288.16C319.966 1287.05 320.045 1285.64 320.045 1283.91C320.045 1282.89 319.905 1281.89 319.625 1280.91C319.352 1279.92 318.936 1278.99 318.375 1278.12C317.822 1277.26 317.121 1276.5 316.273 1275.84C315.424 1275.18 314.428 1274.67 313.284 1274.3C312.148 1273.92 310.856 1273.73 309.409 1273.73C307.629 1273.73 306.034 1274 304.625 1274.56C303.223 1275.1 302.03 1275.9 301.045 1276.95C300.068 1278 299.322 1279.27 298.807 1280.77C298.299 1282.27 298.045 1283.96 298.045 1285.86C298.045 1287.8 298.299 1289.51 298.807 1291.01C299.322 1292.51 300.08 1293.78 301.08 1294.81C302.087 1295.84 303.333 1296.62 304.818 1297.15C306.303 1297.69 308.015 1297.95 309.955 1297.95C310.788 1297.95 311.61 1297.88 312.42 1297.72C313.231 1297.56 313.947 1297.38 314.568 1297.19C315.189 1297 315.636 1296.86 315.909 1296.77L316.545 1298.86C316.076 1299.06 315.462 1299.26 314.705 1299.45C313.955 1299.65 313.152 1299.81 312.295 1299.94C311.447 1300.07 310.636 1300.14 309.864 1300.14ZM308.545 1291.09C309.561 1291.09 310.383 1290.89 311.011 1290.48C311.64 1290.07 312.098 1289.45 312.386 1288.62C312.674 1287.8 312.818 1286.76 312.818 1285.5C312.818 1284.23 312.659 1283.23 312.341 1282.52C312.023 1281.81 311.553 1281.31 310.932 1281.02C310.311 1280.73 309.545 1280.59 308.636 1280.59C307.773 1280.59 307.034 1280.82 306.42 1281.27C305.814 1281.72 305.348 1282.32 305.023 1283.07C304.705 1283.81 304.545 1284.62 304.545 1285.5C304.545 1286.47 304.674 1287.38 304.932 1288.24C305.189 1289.09 305.61 1289.78 306.193 1290.31C306.777 1290.83 307.561 1291.09 308.545 1291.09ZM329.105 1283.5V1294H326.423V1270.73H329.105V1279.27H329.332C329.741 1278.37 330.355 1277.66 331.173 1277.12C331.999 1276.59 333.098 1276.32 334.469 1276.32C335.658 1276.32 336.7 1276.56 337.594 1277.03C338.488 1277.5 339.181 1278.23 339.673 1279.2C340.173 1280.17 340.423 1281.41 340.423 1282.91V1294H337.741V1283.09C337.741 1281.7 337.382 1280.63 336.662 1279.88C335.95 1279.11 334.961 1278.73 333.696 1278.73C332.817 1278.73 332.029 1278.91 331.332 1279.28C330.643 1279.66 330.098 1280.2 329.696 1280.91C329.302 1281.62 329.105 1282.48 329.105 1283.5ZM350.466 1294.41C349.36 1294.41 348.356 1294.2 347.455 1293.78C346.553 1293.36 345.837 1292.75 345.307 1291.95C344.777 1291.15 344.511 1290.18 344.511 1289.05C344.511 1288.05 344.708 1287.23 345.102 1286.61C345.496 1285.98 346.023 1285.49 346.682 1285.14C347.341 1284.78 348.068 1284.52 348.864 1284.34C349.667 1284.16 350.473 1284.02 351.284 1283.91C352.345 1283.77 353.205 1283.67 353.864 1283.6C354.53 1283.53 355.015 1283.4 355.318 1283.23C355.629 1283.05 355.784 1282.75 355.784 1282.32V1282.23C355.784 1281.11 355.477 1280.23 354.864 1279.61C354.258 1278.99 353.337 1278.68 352.102 1278.68C350.822 1278.68 349.818 1278.96 349.091 1279.52C348.364 1280.08 347.852 1280.68 347.557 1281.32L345.011 1280.41C345.466 1279.35 346.072 1278.52 346.83 1277.93C347.595 1277.33 348.428 1276.92 349.33 1276.68C350.239 1276.44 351.133 1276.32 352.011 1276.32C352.572 1276.32 353.216 1276.39 353.943 1276.52C354.678 1276.65 355.386 1276.92 356.068 1277.33C356.758 1277.74 357.33 1278.36 357.784 1279.18C358.239 1280.01 358.466 1281.11 358.466 1282.5V1294H355.784V1291.64H355.648C355.466 1292.02 355.163 1292.42 354.739 1292.85C354.314 1293.28 353.75 1293.65 353.045 1293.95C352.341 1294.26 351.481 1294.41 350.466 1294.41ZM350.875 1292C351.936 1292 352.83 1291.79 353.557 1291.38C354.292 1290.96 354.845 1290.42 355.216 1289.76C355.595 1289.1 355.784 1288.41 355.784 1287.68V1285.23C355.67 1285.36 355.42 1285.49 355.034 1285.6C354.655 1285.71 354.216 1285.8 353.716 1285.89C353.223 1285.96 352.742 1286.03 352.273 1286.09C351.811 1286.14 351.436 1286.19 351.148 1286.23C350.451 1286.32 349.799 1286.47 349.193 1286.67C348.595 1286.87 348.11 1287.17 347.739 1287.57C347.375 1287.96 347.193 1288.5 347.193 1289.18C347.193 1290.11 347.538 1290.82 348.227 1291.3C348.924 1291.77 349.807 1292 350.875 1292ZM366.043 1283.5V1294H363.361V1276.55H365.952V1279.27H366.179C366.588 1278.39 367.209 1277.67 368.043 1277.14C368.876 1276.59 369.952 1276.32 371.27 1276.32C372.452 1276.32 373.486 1276.56 374.372 1277.05C375.259 1277.52 375.948 1278.25 376.44 1279.23C376.933 1280.2 377.179 1281.42 377.179 1282.91V1294H374.497V1283.09C374.497 1281.72 374.141 1280.65 373.429 1279.89C372.717 1279.11 371.74 1278.73 370.497 1278.73C369.641 1278.73 368.876 1278.91 368.202 1279.28C367.535 1279.66 367.009 1280.2 366.622 1280.91C366.236 1281.62 366.043 1282.48 366.043 1283.5ZM388.67 1294.36C387.216 1294.36 385.932 1294 384.818 1293.26C383.705 1292.52 382.833 1291.47 382.205 1290.12C381.576 1288.77 381.261 1287.17 381.261 1285.32C381.261 1283.48 381.576 1281.89 382.205 1280.55C382.833 1279.2 383.708 1278.16 384.83 1277.42C385.951 1276.69 387.246 1276.32 388.716 1276.32C389.852 1276.32 390.75 1276.51 391.409 1276.89C392.076 1277.26 392.583 1277.68 392.932 1278.16C393.288 1278.63 393.564 1279.02 393.761 1279.32H393.989V1270.73H396.67V1294H394.08V1291.32H393.761C393.564 1291.64 393.284 1292.04 392.92 1292.52C392.557 1293 392.038 1293.43 391.364 1293.81C390.689 1294.18 389.792 1294.36 388.67 1294.36ZM389.034 1291.95C390.11 1291.95 391.019 1291.67 391.761 1291.11C392.504 1290.55 393.068 1289.76 393.455 1288.76C393.841 1287.75 394.034 1286.59 394.034 1285.27C394.034 1283.97 393.845 1282.83 393.466 1281.85C393.087 1280.87 392.527 1280.1 391.784 1279.56C391.042 1279 390.125 1278.73 389.034 1278.73C387.898 1278.73 386.951 1279.02 386.193 1279.6C385.443 1280.18 384.879 1280.96 384.5 1281.95C384.129 1282.94 383.943 1284.05 383.943 1285.27C383.943 1286.52 384.133 1287.64 384.511 1288.66C384.898 1289.67 385.466 1290.47 386.216 1291.07C386.973 1291.66 387.913 1291.95 389.034 1291.95ZM404.636 1270.73V1294H401.955V1270.73H404.636ZM416.866 1294.36C415.185 1294.36 413.734 1293.99 412.514 1293.25C411.302 1292.5 410.366 1291.45 409.707 1290.11C409.056 1288.77 408.73 1287.2 408.73 1285.41C408.73 1283.62 409.056 1282.05 409.707 1280.68C410.366 1279.31 411.283 1278.24 412.457 1277.48C413.639 1276.7 415.018 1276.32 416.594 1276.32C417.503 1276.32 418.401 1276.47 419.287 1276.77C420.173 1277.08 420.98 1277.57 421.707 1278.25C422.435 1278.92 423.014 1279.82 423.446 1280.93C423.878 1282.05 424.094 1283.42 424.094 1285.05V1286.18H410.639V1283.86H421.366C421.366 1282.88 421.17 1282 420.776 1281.23C420.389 1280.45 419.836 1279.84 419.116 1279.4C418.404 1278.95 417.563 1278.73 416.594 1278.73C415.526 1278.73 414.601 1278.99 413.821 1279.52C413.048 1280.05 412.454 1280.73 412.037 1281.57C411.62 1282.41 411.412 1283.31 411.412 1284.27V1285.82C411.412 1287.14 411.639 1288.25 412.094 1289.17C412.556 1290.08 413.196 1290.77 414.014 1291.25C414.832 1291.72 415.783 1291.95 416.866 1291.95C417.571 1291.95 418.207 1291.86 418.776 1291.66C419.351 1291.45 419.848 1291.15 420.264 1290.75C420.681 1290.34 421.003 1289.83 421.23 1289.23L423.821 1289.95C423.548 1290.83 423.09 1291.61 422.446 1292.27C421.802 1292.93 421.007 1293.45 420.06 1293.82C419.113 1294.18 418.048 1294.36 416.866 1294.36ZM440.219 1294V1296.5H425.673V1294H440.219ZM445.324 1283.5V1294H442.642V1270.73H445.324V1279.27H445.551C445.96 1278.37 446.574 1277.66 447.392 1277.12C448.218 1276.59 449.316 1276.32 450.688 1276.32C451.877 1276.32 452.919 1276.56 453.812 1277.03C454.706 1277.5 455.4 1278.23 455.892 1279.2C456.392 1280.17 456.642 1281.41 456.642 1282.91V1294H453.96V1283.09C453.96 1281.7 453.6 1280.63 452.881 1279.88C452.169 1279.11 451.18 1278.73 449.915 1278.73C449.036 1278.73 448.248 1278.91 447.551 1279.28C446.862 1279.66 446.316 1280.2 445.915 1280.91C445.521 1281.62 445.324 1282.48 445.324 1283.5ZM468.866 1294.36C467.185 1294.36 465.734 1293.99 464.514 1293.25C463.302 1292.5 462.366 1291.45 461.707 1290.11C461.056 1288.77 460.73 1287.2 460.73 1285.41C460.73 1283.62 461.056 1282.05 461.707 1280.68C462.366 1279.31 463.283 1278.24 464.457 1277.48C465.639 1276.7 467.018 1276.32 468.594 1276.32C469.503 1276.32 470.401 1276.47 471.287 1276.77C472.173 1277.08 472.98 1277.57 473.707 1278.25C474.435 1278.92 475.014 1279.82 475.446 1280.93C475.878 1282.05 476.094 1283.42 476.094 1285.05V1286.18H462.639V1283.86H473.366C473.366 1282.88 473.17 1282 472.776 1281.23C472.389 1280.45 471.836 1279.84 471.116 1279.4C470.404 1278.95 469.563 1278.73 468.594 1278.73C467.526 1278.73 466.601 1278.99 465.821 1279.52C465.048 1280.05 464.454 1280.73 464.037 1281.57C463.62 1282.41 463.412 1283.31 463.412 1284.27V1285.82C463.412 1287.14 463.639 1288.25 464.094 1289.17C464.556 1290.08 465.196 1290.77 466.014 1291.25C466.832 1291.72 467.783 1291.95 468.866 1291.95C469.571 1291.95 470.207 1291.86 470.776 1291.66C471.351 1291.45 471.848 1291.15 472.264 1290.75C472.681 1290.34 473.003 1289.83 473.23 1289.23L475.821 1289.95C475.548 1290.83 475.09 1291.61 474.446 1292.27C473.802 1292.93 473.007 1293.45 472.06 1293.82C471.113 1294.18 470.048 1294.36 468.866 1294.36ZM480.173 1294V1276.55H482.764V1279.18H482.946C483.264 1278.32 483.84 1277.62 484.673 1277.08C485.507 1276.54 486.446 1276.27 487.491 1276.27C487.688 1276.27 487.935 1276.28 488.23 1276.28C488.526 1276.29 488.749 1276.3 488.901 1276.32V1279.05C488.81 1279.02 488.601 1278.99 488.276 1278.94C487.957 1278.89 487.62 1278.86 487.264 1278.86C486.416 1278.86 485.658 1279.04 484.991 1279.4C484.332 1279.75 483.81 1280.23 483.423 1280.85C483.045 1281.47 482.855 1282.17 482.855 1282.95V1294H480.173ZM498.866 1294.36C497.185 1294.36 495.734 1293.99 494.514 1293.25C493.302 1292.5 492.366 1291.45 491.707 1290.11C491.056 1288.77 490.73 1287.2 490.73 1285.41C490.73 1283.62 491.056 1282.05 491.707 1280.68C492.366 1279.31 493.283 1278.24 494.457 1277.48C495.639 1276.7 497.018 1276.32 498.594 1276.32C499.503 1276.32 500.401 1276.47 501.287 1276.77C502.173 1277.08 502.98 1277.57 503.707 1278.25C504.435 1278.92 505.014 1279.82 505.446 1280.93C505.878 1282.05 506.094 1283.42 506.094 1285.05V1286.18H492.639V1283.86H503.366C503.366 1282.88 503.17 1282 502.776 1281.23C502.389 1280.45 501.836 1279.84 501.116 1279.4C500.404 1278.95 499.563 1278.73 498.594 1278.73C497.526 1278.73 496.601 1278.99 495.821 1279.52C495.048 1280.05 494.454 1280.73 494.037 1281.57C493.62 1282.41 493.412 1283.31 493.412 1284.27V1285.82C493.412 1287.14 493.639 1288.25 494.094 1289.17C494.556 1290.08 495.196 1290.77 496.014 1291.25C496.832 1291.72 497.783 1291.95 498.866 1291.95C499.571 1291.95 500.207 1291.86 500.776 1291.66C501.351 1291.45 501.848 1291.15 502.264 1290.75C502.681 1290.34 503.003 1289.83 503.23 1289.23L505.821 1289.95C505.548 1290.83 505.09 1291.61 504.446 1292.27C503.802 1292.93 503.007 1293.45 502.06 1293.82C501.113 1294.18 500.048 1294.36 498.866 1294.36Z" fill="black"/>
<circle cx="206" cy="1256" r="54" fill="#D1CBCB"/>
<path d="M169.182 1257.23V1255.82C170.447 1255.82 171.33 1255.55 171.83 1255.02C172.337 1254.49 172.591 1253.61 172.591 1252.36V1248.73C172.591 1247.68 172.689 1246.78 172.886 1246.01C173.091 1245.25 173.42 1244.61 173.875 1244.11C174.33 1243.61 174.936 1243.24 175.693 1243C176.451 1242.76 177.386 1242.64 178.5 1242.64V1244.86C177.621 1244.86 176.928 1245 176.42 1245.27C175.92 1245.55 175.564 1245.97 175.352 1246.55C175.148 1247.11 175.045 1247.84 175.045 1248.73V1253.27C175.045 1253.86 174.966 1254.4 174.807 1254.89C174.655 1255.37 174.371 1255.79 173.955 1256.14C173.538 1256.48 172.943 1256.75 172.17 1256.94C171.405 1257.13 170.409 1257.23 169.182 1257.23ZM178.5 1271.73C177.386 1271.73 176.451 1271.61 175.693 1271.36C174.936 1271.12 174.33 1270.75 173.875 1270.25C173.42 1269.75 173.091 1269.12 172.886 1268.35C172.689 1267.59 172.591 1266.68 172.591 1265.64V1262C172.591 1260.76 172.337 1259.87 171.83 1259.34C171.33 1258.81 170.447 1258.55 169.182 1258.55V1257.14C170.409 1257.14 171.405 1257.23 172.17 1257.42C172.943 1257.61 173.538 1257.88 173.955 1258.23C174.371 1258.58 174.655 1258.99 174.807 1259.48C174.966 1259.96 175.045 1260.5 175.045 1261.09V1265.64C175.045 1266.52 175.148 1267.25 175.352 1267.82C175.564 1268.39 175.92 1268.81 176.42 1269.08C176.928 1269.36 177.621 1269.5 178.5 1269.5V1271.73ZM169.182 1258.55V1255.82H171.864V1258.55H169.182ZM187.185 1267.41C186.079 1267.41 185.075 1267.2 184.173 1266.78C183.272 1266.36 182.556 1265.75 182.026 1264.95C181.495 1264.15 181.23 1263.18 181.23 1262.05C181.23 1261.05 181.427 1260.23 181.821 1259.61C182.215 1258.98 182.741 1258.49 183.401 1258.14C184.06 1257.78 184.787 1257.52 185.582 1257.34C186.385 1257.16 187.192 1257.02 188.003 1256.91C189.063 1256.77 189.923 1256.67 190.582 1256.6C191.249 1256.53 191.734 1256.4 192.037 1256.23C192.348 1256.05 192.503 1255.75 192.503 1255.32V1255.23C192.503 1254.11 192.196 1253.23 191.582 1252.61C190.976 1251.99 190.056 1251.68 188.821 1251.68C187.541 1251.68 186.537 1251.96 185.81 1252.52C185.082 1253.08 184.571 1253.68 184.276 1254.32L181.73 1253.41C182.185 1252.35 182.791 1251.52 183.548 1250.93C184.313 1250.33 185.147 1249.92 186.048 1249.68C186.957 1249.44 187.851 1249.32 188.73 1249.32C189.291 1249.32 189.935 1249.39 190.662 1249.52C191.397 1249.65 192.105 1249.92 192.787 1250.33C193.476 1250.74 194.048 1251.36 194.503 1252.18C194.957 1253.01 195.185 1254.11 195.185 1255.5V1267H192.503V1264.64H192.366C192.185 1265.02 191.882 1265.42 191.457 1265.85C191.033 1266.28 190.469 1266.65 189.764 1266.95C189.06 1267.26 188.2 1267.41 187.185 1267.41ZM187.594 1265C188.654 1265 189.548 1264.79 190.276 1264.38C191.01 1263.96 191.563 1263.42 191.935 1262.76C192.313 1262.1 192.503 1261.41 192.503 1260.68V1258.23C192.389 1258.36 192.139 1258.49 191.753 1258.6C191.374 1258.71 190.935 1258.8 190.435 1258.89C189.942 1258.96 189.461 1259.03 188.991 1259.09C188.529 1259.14 188.154 1259.19 187.866 1259.23C187.17 1259.32 186.518 1259.47 185.912 1259.67C185.313 1259.87 184.829 1260.17 184.457 1260.57C184.094 1260.96 183.912 1261.5 183.912 1262.18C183.912 1263.11 184.257 1263.82 184.946 1264.3C185.643 1264.77 186.526 1265 187.594 1265ZM213.727 1249.55L207.273 1267H204.545L198.091 1249.55H201L205.818 1263.45H206L210.818 1249.55H213.727ZM221.872 1267.41C220.766 1267.41 219.762 1267.2 218.861 1266.78C217.959 1266.36 217.243 1265.75 216.713 1264.95C216.183 1264.15 215.918 1263.18 215.918 1262.05C215.918 1261.05 216.115 1260.23 216.509 1259.61C216.902 1258.98 217.429 1258.49 218.088 1258.14C218.747 1257.78 219.474 1257.52 220.27 1257.34C221.073 1257.16 221.88 1257.02 222.69 1256.91C223.751 1256.77 224.611 1256.67 225.27 1256.6C225.937 1256.53 226.421 1256.4 226.724 1256.23C227.035 1256.05 227.19 1255.75 227.19 1255.32V1255.23C227.19 1254.11 226.884 1253.23 226.27 1252.61C225.664 1251.99 224.743 1251.68 223.509 1251.68C222.228 1251.68 221.224 1251.96 220.497 1252.52C219.77 1253.08 219.259 1253.68 218.963 1254.32L216.418 1253.41C216.872 1252.35 217.478 1251.52 218.236 1250.93C219.001 1250.33 219.834 1249.92 220.736 1249.68C221.645 1249.44 222.539 1249.32 223.418 1249.32C223.978 1249.32 224.622 1249.39 225.349 1249.52C226.084 1249.65 226.793 1249.92 227.474 1250.33C228.164 1250.74 228.736 1251.36 229.19 1252.18C229.645 1253.01 229.872 1254.11 229.872 1255.5V1267H227.19V1264.64H227.054C226.872 1265.02 226.569 1265.42 226.145 1265.85C225.721 1266.28 225.156 1266.65 224.452 1266.95C223.747 1267.26 222.887 1267.41 221.872 1267.41ZM222.281 1265C223.342 1265 224.236 1264.79 224.963 1264.38C225.698 1263.96 226.251 1263.42 226.622 1262.76C227.001 1262.1 227.19 1261.41 227.19 1260.68V1258.23C227.077 1258.36 226.827 1258.49 226.44 1258.6C226.062 1258.71 225.622 1258.8 225.122 1258.89C224.63 1258.96 224.149 1259.03 223.679 1259.09C223.217 1259.14 222.842 1259.19 222.554 1259.23C221.857 1259.32 221.205 1259.47 220.599 1259.67C220.001 1259.87 219.516 1260.17 219.145 1260.57C218.781 1260.96 218.599 1261.5 218.599 1262.18C218.599 1263.11 218.944 1263.82 219.634 1264.3C220.33 1264.77 221.213 1265 222.281 1265ZM242.722 1257.14V1258.55C241.456 1258.55 240.57 1258.81 240.062 1259.34C239.562 1259.87 239.312 1260.76 239.312 1262V1265.64C239.312 1266.68 239.21 1267.59 239.006 1268.35C238.809 1269.12 238.483 1269.75 238.028 1270.25C237.574 1270.75 236.968 1271.12 236.21 1271.36C235.453 1271.61 234.517 1271.73 233.403 1271.73V1269.5C234.282 1269.5 234.972 1269.36 235.472 1269.08C235.979 1268.81 236.335 1268.39 236.54 1267.82C236.752 1267.25 236.858 1266.52 236.858 1265.64V1261.09C236.858 1260.5 236.934 1259.96 237.085 1259.48C237.244 1258.99 237.532 1258.58 237.949 1258.23C238.366 1257.88 238.956 1257.61 239.722 1257.42C240.494 1257.23 241.494 1257.14 242.722 1257.14ZM233.403 1242.64C234.517 1242.64 235.453 1242.76 236.21 1243C236.968 1243.24 237.574 1243.61 238.028 1244.11C238.483 1244.61 238.809 1245.25 239.006 1246.01C239.21 1246.78 239.312 1247.68 239.312 1248.73V1252.36C239.312 1253.61 239.562 1254.49 240.062 1255.02C240.57 1255.55 241.456 1255.82 242.722 1255.82V1257.23C241.494 1257.23 240.494 1257.13 239.722 1256.94C238.956 1256.75 238.366 1256.48 237.949 1256.14C237.532 1255.79 237.244 1255.37 237.085 1254.89C236.934 1254.4 236.858 1253.86 236.858 1253.27V1248.73C236.858 1247.84 236.752 1247.11 236.54 1246.55C236.335 1245.97 235.979 1245.55 235.472 1245.27C234.972 1245 234.282 1244.86 233.403 1244.86V1242.64ZM242.722 1255.82V1258.55H240.04V1255.82H242.722Z" fill="black"/>
</g>
<defs>
<filter id="filter0_d_1179_2" x="96" y="73" width="887" height="333" filterUnits="userSpaceOnUse" color-interpolation-filters="sRGB">
<feFlood flood-opacity="0" result="BackgroundImageFix"/>
<feColorMatrix in="SourceAlpha" type="matrix" values="0 0 0 0 0 0 0 0 0 0 0 0 0 0 0 0 0 0 127 0" result="hardAlpha"/>
<feOffset dy="4"/>
<feGaussianBlur stdDeviation="2"/>
<feComposite in2="hardAlpha" operator="out"/>
<feColorMatrix type="matrix" values="0 0 0 0 0 0 0 0 0 0 0 0 0 0 0 0 0 0 0.25 0"/>
<feBlend mode="normal" in2="BackgroundImageFix" result="effect1_dropShadow_1179_2"/>
<feBlend mode="normal" in="SourceGraphic" in2="effect1_dropShadow_1179_2" result="shape"/>
</filter>
<filter id="filter1_d_1179_2" x="96" y="421" width="441" height="711" filterUnits="userSpaceOnUse" color-interpolation-filters="sRGB">
<feFlood flood-opacity="0" result="BackgroundImageFix"/>
<feColorMatrix in="SourceAlpha" type="matrix" values="0 0 0 0 0 0 0 0 0 0 0 0 0 0 0 0 0 0 127 0" result="hardAlpha"/>
<feOffset dy="4"/>
<feGaussianBlur stdDeviation="2"/>
<feComposite in2="hardAlpha" operator="out"/>
<feColorMatrix type="matrix" values="0 0 0 0 0 0 0 0 0 0 0 0 0 0 0 0 0 0 0.25 0"/>
<feBlend mode="normal" in2="BackgroundImageFix" result="effect1_dropShadow_1179_2"/>
<feBlend mode="normal" in="SourceGraphic" in2="effect1_dropShadow_1179_2" result="shape"/>
</filter>
<filter id="filter2_d_1179_2" x="542" y="421" width="441" height="711" filterUnits="userSpaceOnUse" color-interpolation-filters="sRGB">
<feFlood flood-opacity="0" result="BackgroundImageFix"/>
<feColorMatrix in="SourceAlpha" type="matrix" values="0 0 0 0 0 0 0 0 0 0 0 0 0 0 0 0 0 0 127 0" result="hardAlpha"/>
<feOffset dy="4"/>
<feGaussianBlur stdDeviation="2"/>
<feComposite in2="hardAlpha" operator="out"/>
<feColorMatrix type="matrix" values="0 0 0 0 0 0 0 0 0 0 0 0 0 0 0 0 0 0 0.25 0"/>
<feBlend mode="normal" in2="BackgroundImageFix" result="effect1_dropShadow_1179_2"/>
<feBlend mode="normal" in="SourceGraphic" in2="effect1_dropShadow_1179_2" result="shape"/>
</filter>
<filter id="filter3_d_1179_2" x="101" y="1147" width="887" height="377" filterUnits="userSpaceOnUse" color-interpolation-filters="sRGB">
<feFlood flood-opacity="0" result="BackgroundImageFix"/>
<feColorMatrix in="SourceAlpha" type="matrix" values="0 0 0 0 0 0 0 0 0 0 0 0 0 0 0 0 0 0 127 0" result="hardAlpha"/>
<feOffset dy="4"/>
<feGaussianBlur stdDeviation="2"/>
<feComposite in2="hardAlpha" operator="out"/>
<feColorMatrix type="matrix" values="0 0 0 0 0 0 0 0 0 0 0 0 0 0 0 0 0 0 0.25 0"/>
<feBlend mode="normal" in2="BackgroundImageFix" result="effect1_dropShadow_1179_2"/>
<feBlend mode="normal" in="SourceGraphic" in2="effect1_dropShadow_1179_2" result="shape"/>
</filter>
<filter id="filter4_d_1179_2" x="101" y="1147" width="887" height="377" filterUnits="userSpaceOnUse" color-interpolation-filters="sRGB">
<feFlood flood-opacity="0" result="BackgroundImageFix"/>
<feColorMatrix in="SourceAlpha" type="matrix" values="0 0 0 0 0 0 0 0 0 0 0 0 0 0 0 0 0 0 127 0" result="hardAlpha"/>
<feOffset dy="4"/>
<feGaussianBlur stdDeviation="2"/>
<feComposite in2="hardAlpha" operator="out"/>
<feColorMatrix type="matrix" values="0 0 0 0 0 0 0 0 0 0 0 0 0 0 0 0 0 0 0.25 0"/>
<feBlend mode="normal" in2="BackgroundImageFix" result="effect1_dropShadow_1179_2"/>
<feBlend mode="normal" in="SourceGraphic" in2="effect1_dropShadow_1179_2" result="shape"/>
</filter>
</defs>
</svg>
